ffmpeg version 2.1.1 Copyright (c) 2000-2013 the FFmpeg developers
  built on Dec 20 2014 10:34:55 with gcc 4.7 (Debian 4.7.2-5)
  configuration: --enable-gpl --enable-nonfree --enable-postproc --enable-pthreads --enable-x11grab --enable-swscale --enable-version3 --enable-shared --disable-yasm --enable-filter=movie --enable-frei0r --enable-libdc1394 --enable-libfaac --enable-libmp3lame --enable-libx264 --enable-libxvid --enable-libfreetype --enable-libvorbis --enable-libgsm --enable-libopencore-amrnb --enable-libopencore-amrwb --enable-libopenjpeg --enable-librtmp --enable-libschroedinger --enable-libspeex --enable-libtheora --enable-libvpx --enable-libvo-amrwbenc --enable-libvo-aacenc --enable-libaacplus --enable-libxavs --enable-bzlib --enable-openssl --enable-gnutls --enable-openal --enable-libv4l2 --enable-libpulse --enable-libmodplug --enable-libass --enable-libcdio --enable-vdpau --enable-libbluray
  libavutil      52. 48.101 / 52. 48.101
  libavcodec     55. 39.101 / 55. 39.101
  libavformat    55. 19.104 / 55. 19.104
  libavdevice    55.  5.100 / 55.  5.100
  libavfilter     3. 90.100 /  3. 90.100
  libswscale      2.  5.101 /  2.  5.101
  libswresample   0. 17.104 /  0. 17.104
  libpostproc    52.  3.100 / 52.  3.100
Input #0, flv, from '/var/www/business-supermarket.co.uk/web/www/temp/0116654001426845642.flv':
  Metadata:
    encoder         : Lavf55.33.100
  Duration: 00:03:33.50, start: 0.000000, bitrate: 1141 kb/s
    Stream #0:0: Video: h264 (Constrained Baseline), yuv420p, 640x360 [SAR 1:1 DAR 16:9], 1000 kb/s, 24 tbr, 1k tbn, 48 tbc
    Stream #0:1: Audio: mp3, 44100 Hz, stereo, s16p, 128 kb/s
Please use -b:a or -b:v, -b is ambiguous
Output #0, flv, to '/var/www/business-supermarket.co.uk/web/www/upload/users/jag_1/videos/0116654001426845642.flv':
  Metadata:
    encoder         : Lavf55.19.104
    Stream #0:0: Video: flv1 (flv) ([2][0][0][0] / 0x0002), yuv420p, 512x384 [SAR 4:3 DAR 16:9], q=2-31, 1000 kb/s, 1k tbn, 30 tbc
    Stream #0:1: Audio: mp3 (libmp3lame) ([2][0][0][0] / 0x0002), 44100 Hz, stereo, s16p, 128 kb/s
Stream mapping:
  Stream #0:0 -> #0:0 (h264 -> flv)
  Stream #0:1 -> #0:1 (mp3 -> libmp3lame)
Press [q] to stop, [?] for help
frame=   36 fps=0.0 q=2.0 size=     288kB time=00:00:01.56 bitrate=1506.7kbits/s    frame=  125 fps=124 q=2.0 size=     687kB time=00:00:05.25 bitrate=1071.1kbits/s    frame=  212 fps=140 q=2.0 size=     996kB time=00:00:08.83 bitrate= 923.3kbits/s    frame=  280 fps=139 q=2.8 size=    1738kB time=00:00:11.66 bitrate=1220.3kbits/s    frame=  340 fps=122 q=3.0 size=    2140kB time=00:00:14.16 bitrate=1237.6kbits/s    frame=  411 fps=125 q=3.4 size=    2559kB time=00:00:17.10 bitrate=1225.9kbits/s    frame=  481 fps=127 q=4.5 size=    2976kB time=00:00:20.03 bitrate=1217.2kbits/s    frame=  555 fps=130 q=5.8 size=    3406kB time=00:00:23.10 bitrate=1207.9kbits/s    frame=  615 fps=128 q=6.2 size=    3784kB time=00:00:25.60 bitrate=1210.8kbits/s    frame=  688 fps=130 q=4.7 size=    4153kB time=00:00:28.66 bitrate=1186.8kbits/s    frame=  758 fps=131 q=16.5 size=    4605kB time=00:00:31.56 bitrate=1195.2kbits/s    frame=  823 fps=131 q=23.6 size=    5068kB time=00:00:34.30 bitrate=1210.5kbits/s    frame=  867 fps=127 q=3.3 size=    5237kB time=00:00:36.10 bitrate=1188.4kbits/s    frame=  940 fps=129 q=2.0 size=    5412kB time=00:00:39.16 bitrate=1131.9kbits/s    frame= 1011 fps=130 q=4.2 size=    5856kB time=00:00:42.10 bitrate=1139.4kbits/s    frame= 1083 fps=130 q=3.4 size=    6337kB time=00:00:45.10 bitrate=1151.1kbits/s    frame= 1146 fps=130 q=4.3 size=    6738kB time=00:00:47.73 bitrate=1156.3kbits/s    frame= 1219 fps=131 q=3.0 size=    7143kB time=00:00:50.80 bitrate=1151.8kbits/s    frame= 1291 fps=132 q=5.8 size=    7569kB time=00:00:53.80 bitrate=1152.5kbits/s    frame= 1356 fps=126 q=5.3 size=    7944kB time=00:00:56.50 bitrate=1151.8kbits/s    frame= 1429 fps=126 q=4.5 size=    8369kB time=00:00:59.53 bitrate=1151.6kbits/s    frame= 1506 fps=128 q=3.6 size=    8816kB time=00:01:02.73 bitrate=1151.2kbits/s    frame= 1576 fps=128 q=4.5 size=    9190kB time=00:01:05.66 bitrate=1146.5kbits/s    frame= 1647 fps=129 q=5.2 size=    9579kB time=00:01:08.60 bitrate=1143.9kbits/s    frame= 1719 fps=129 q=3.5 size=   10019kB time=00:01:11.60 bitrate=1146.3kbits/s    frame= 1788 fps=129 q=3.0 size=   10399kB time=00:01:14.50 bitrate=1143.5kbits/s    frame= 1861 fps=130 q=3.0 size=   10834kB time=00:01:17.53 bitrate=1144.7kbits/s    frame= 1916 fps=129 q=5.5 size=   11170kB time=00:01:19.83 bitrate=1146.2kbits/s    frame= 1990 fps=130 q=6.2 size=   11622kB time=00:01:22.90 bitrate=1148.4kbits/s    frame= 2062 fps=130 q=4.2 size=   12026kB time=00:01:25.90 bitrate=1146.9kbits/s    frame= 2139 fps=131 q=1.6 size=   12358kB time=00:01:29.10 bitrate=1136.2kbits/s    frame= 2208 fps=131 q=4.6 size=   12828kB time=00:01:32.00 bitrate=1142.2kbits/s    frame= 2284 fps=132 q=2.0 size=   13181kB time=00:01:35.16 bitrate=1134.6kbits/s    frame= 2360 fps=132 q=3.1 size=   13647kB time=00:01:38.33 bitrate=1136.9kbits/s    frame= 2425 fps=132 q=2.0 size=   13998kB time=00:01:41.03 bitrate=1135.0kbits/s    frame= 2498 fps=132 q=2.0 size=   14272kB time=00:01:44.06 bitrate=1123.5kbits/s    frame= 2572 fps=132 q=2.0 size=   14634kB time=00:01:47.16 bitrate=1118.7kbits/s    frame= 2651 fps=133 q=2.0 size=   14952kB time=00:01:50.46 bitrate=1108.8kbits/s    frame= 2724 fps=133 q=2.0 size=   15351kB time=00:01:53.50 bitrate=1108.0kbits/s    frame= 2741 fps=131 q=2.0 size=   15543kB time=00:01:54.20 bitrate=1115.0kbits/s    frame= 2811 fps=131 q=2.5 size=   16208kB time=00:01:57.10 bitrate=1133.9kbits/s    frame= 2881 fps=131 q=2.6 size=   16752kB time=00:02:00.03 bitrate=1143.3kbits/s    frame= 2948 fps=131 q=2.9 size=   17241kB time=00:02:02.83 bitrate=1149.8kbits/s    frame= 3025 fps=132 q=3.2 size=   17628kB time=00:02:06.03 bitrate=1145.8kbits/s    frame= 3098 fps=132 q=5.8 size=   18066kB time=00:02:09.06 bitrate=1146.7kbits/s    frame= 3171 fps=132 q=2.3 size=   18464kB time=00:02:12.10 bitrate=1145.0kbits/s    frame= 3244 fps=133 q=4.6 size=   18922kB time=00:02:15.16 bitrate=1146.8kbits/s    frame= 3297 fps=132 q=4.2 size=   19210kB time=00:02:17.36 bitrate=1145.6kbits/s    frame= 3365 fps=132 q=2.0 size=   19519kB time=00:02:20.20 bitrate=1140.5kbits/s    frame= 3432 fps=132 q=3.0 size=   19942kB time=00:02:23.00 bitrate=1142.4kbits/s    frame= 3495 fps=132 q=2.3 size=   20301kB time=00:02:25.60 bitrate=1142.2kbits/s    frame= 3567 fps=132 q=8.0 size=   20814kB time=00:02:28.60 bitrate=1147.4kbits/s    frame= 3639 fps=132 q=13.4 size=   21249kB time=00:02:31.60 bitrate=1148.2kbits/s    frame= 3711 fps=133 q=4.1 size=   21616kB time=00:02:34.60 bitrate=1145.4kbits/s    frame= 3784 fps=133 q=7.7 size=   22007kB time=00:02:37.66 bitrate=1143.4kbits/s    frame= 3855 fps=133 q=12.8 size=   22464kB time=00:02:40.60 bitrate=1145.9kbits/s    frame= 3928 fps=133 q=4.9 size=   22858kB time=00:02:43.66 bitrate=1144.1kbits/s    frame= 4000 fps=133 q=4.4 size=   23220kB time=00:02:46.66 bitrate=1141.3kbits/s    frame= 4069 fps=133 q=5.4 size=   23617kB time=00:02:49.53 bitrate=1141.2kbits/s    frame= 4143 fps=134 q=3.4 size=   24028kB time=00:02:52.60 bitrate=1140.4kbits/s    frame= 4217 fps=134 q=2.0 size=   24467kB time=00:02:55.70 bitrate=1140.7kbits/s    frame= 4288 fps=134 q=9.8 size=   24930kB time=00:02:58.66 bitrate=1143.1kbits/s    frame= 4363 fps=134 q=3.5 size=   25321kB time=00:03:01.80 bitrate=1141.0kbits/s    frame= 4432 fps=134 q=2.3 size=   25718kB time=00:03:04.66 bitrate=1140.9kbits/s    frame= 4502 fps=134 q=2.0 size=   26121kB time=00:03:07.56 bitrate=1140.8kbits/s    frame= 4582 fps=135 q=3.9 size=   26438kB time=00:03:10.90 bitrate=1134.5kbits/s    frame= 4593 fps=130 q=5.5 size=   26540kB time=00:03:11.36 bitrate=1136.1kbits/s    frame= 4593 fps=128 q=5.5 size=   26540kB time=00:03:11.36 bitrate=1136.1kbits/s    frame= 4678 fps=129 q=2.0 size=   26796kB time=00:03:14.90 bitrate=1126.3kbits/s    frame= 4760 fps=129 q=1.6 size=   27178kB time=00:03:18.33 bitrate=1122.6kbits/s    frame= 4839 fps=130 q=2.5 size=   27695kB time=00:03:21.60 bitrate=1125.4kbits/s    frame= 4918 fps=130 q=2.0 size=   28230kB time=00:03:24.90 bitrate=1128.7kbits/s    frame= 5002 fps=131 q=3.5 size=   28698kB time=00:03:28.40 bitrate=1128.1kbits/s    frame= 5089 fps=131 q=1.6 size=   29081kB time=00:03:32.03 bitrate=1123.5kbits/s    frame= 5124 fps=131 q=2.0 Lsize=   29204kB time=00:03:33.50 bitrate=1120.6kbits/s    
video:25660kB audio:3336kB subtitle:0 global headers:0kB muxing overhead 0.717666%
